#!OML:ASF F:\VICON\USERDATA\INSTALL\rory3\rory3.ASF
:FULLY-SPECIFIED
:DEGREES
245
root 0.580729 17.8921 16.8474 -2.09288 1.19012 2.52458
lowerback 10.1147 -0.890048 -3.12281
upperback 0.597197 -1.46865 1.35352
thorax -4.93731 -0.641715 3.38358
lowerneck -16.0111 -2.54827 -1.94615
upperneck 19.8502 -3.16034 0.542
head 8.89976 -1.57324 0.118325
rclavicle 2.6985e-014 -1.98785e-014
rhumerus -34.4178 -22.8709 -74.5767
rradius 24.2166
rwrist 3.25523
rhand -15.7121 29.6072
rfingers 7.12502
rthumb 10.4779 -0.111642
lclavicle 2.6985e-014 -1.98785e-014
lhumerus -23.929 -4.43194 82.145
lradius 28.1721
lwrist 5.96691
lhand -27.6997 26.6712
lfingers 7.12502
lthumb -1.09585 56.6481
rfemur -32.1235 -1.47146 19.8643
rtibia 42.826
rfoot -6.26936 -13.9465
rtoes -3.29927
lfemur 5.83064 -0.921513 -28.4976
ltibia 20.6557
lfoot -15.7392 -4.01143
ltoes -0.690613
246
root 0.573577 17.8922 17.0357 -1.80006 1.3535 2.53093
lowerback 9.68411 -0.973672 -3.25526
upperback 0.579565 -1.57822 1.43941
thorax -4.69997 -0.697487 3.55102
lowerneck -16.0535 -2.54289 -2.11813
upperneck 19.8975 -3.12687 0.625239
head 8.92788 -1.56129 0.178252
rclavicle -5.36719e-015 -3.97569e-015
rhumerus -34.6826 -22.991 -74.2842
rradius 24.1763
rwrist 3.9059
rhand -17.3895 25.4785
rfingers 7.12502
rthumb 8.85945 -4.31555
lclavicle -5.36719e-015 -3.97569e-015
lhumerus -23.4253 -4.44265 82.1385
lradius 28.292
lwrist 6.12913
lhand -27.8819 27.9798
lfingers 7.12502
lthumb -1.27183 57.9558
rfemur -32.0975 -1.07674 19.8164
rtibia 39.384
rfoot -5.43309 -14.7406
rtoes -0.420403
lfemur 6.97815 -0.999354 -28.4176
ltibia 19.5949
lfoot -15.8776 -4.1501
ltoes -0.655019
247
root 0.568052 17.8899 17.2221 -1.62044 1.63479 2.71613
lowerback 9.35973 -1.06237 -3.46231
upperback 0.644659 -1.70994 1.39854
thorax -4.43443 -0.766285 3.63066
lowerneck -16.0259 -2.56657 -1.99984
upperneck 19.7189 -3.1563 0.482177
head 8.85734 -1.58187 0.10807
rclavicle -1.23743e-014 -8.74653e-015
rhumerus -34.9075 -23.3271 -74.0392
rradius 24.1346
rwrist 4.61376
rhand -18.391 23.1003
rfingers 7.12502
rthumb 7.89301 -6.73232
lclavicle -1.23743e-014 -8.74653e-015
lhumerus -22.7633 -4.75149 82.0769
lradius 28.5269
lwrist 6.54472
lhand -27.5745 28.3522
lfingers 7.12502
lthumb -0.974915 58.3297
rfemur -31.8589 -0.678516 19.5
rtibia 35.9107
rfoot -4.56498 -15.5077
rtoes 1.12779
lfemur 8.16766 -0.896725 -28.5078
ltibia 18.511
lfoot -16.2126 -4.30118
ltoes -2.99924
248
root 0.561572 17.8875 17.3955 -1.3589 1.89844 2.93486
lowerback 9.44155 -1.12959 -3.68632
upperback 0.468702 -1.83206 1.30984
thorax -4.64988 -0.814723 3.68632
lowerneck -16.0466 -2.52227 -1.83974
upperneck 19.9128 -3.14464 0.510431
head 8.92499 -1.56099 0.0911305
rclavicle 5.46658e-015 -2.38542e-015
rhumerus -35.5034 -23.6037 -73.8108
rradius 24.191
rwrist 5.03382
rhand -17.4309 25.3369
rfingers 7.12502
rthumb 8.81958 -4.45882
lclavicle 5.46658e-015 -2.38542e-015
lhumerus -22.4388 -5.25861 81.9915
lradius 28.8203
lwrist 7.11717
lhand -27.3903 27.882
lfingers 7.12502
lthumb -0.797087 57.8602
rfemur -31.6459 0.0440131 19.0284
rtibia 32.4059
rfoot -3.81298 -16.3569
rtoes 1.66257
lfemur 9.09551 -0.723376 -28.6089
ltibia 17.449
lfoot -16.3733 -4.62952
ltoes -4.86921
